<svg xmlns="http://www.w3.org/2000/svg" xmlns:xlink="http://www.w3.org/1999/xlink" width="500" zoomAndPan="magnify" viewBox="0 0 375 374.999991" height="500" preserveAspectRatio="xMidYMid meet" version="1.0"><defs><filter x="0%" y="0%" width="100%" height="100%" id="abaceefe6e"><feColorMatrix values="0 0 0 0 1 0 0 0 0 1 0 0 0 0 1 0 0 0 1 0" color-interpolation-filters="sRGB"/></filter><g/><clipPath id="afa3990881"><path d="M 3.117188 3.117188 L 371.882812 3.117188 L 371.882812 371.882812 L 3.117188 371.882812 Z M 3.117188 3.117188 " clip-rule="nonzero"/></clipPath><clipPath id="999b6f2878"><path d="M 187.5 3.117188 C 85.667969 3.117188 3.117188 85.667969 3.117188 187.5 C 3.117188 289.332031 85.667969 371.882812 187.5 371.882812 C 289.332031 371.882812 371.882812 289.332031 371.882812 187.5 C 371.882812 85.667969 289.332031 3.117188 187.5 3.117188 Z M 187.5 3.117188 " clip-rule="nonzero"/></clipPath><clipPath id="371d312deb"><path d="M 0.117188 0.117188 L 368.882812 0.117188 L 368.882812 368.882812 L 0.117188 368.882812 Z M 0.117188 0.117188 " clip-rule="nonzero"/></clipPath><clipPath id="2ccc1ac129"><path d="M 184.5 0.117188 C 82.667969 0.117188 0.117188 82.667969 0.117188 184.5 C 0.117188 286.332031 82.667969 368.882812 184.5 368.882812 C 286.332031 368.882812 368.882812 286.332031 368.882812 184.5 C 368.882812 82.667969 286.332031 0.117188 184.5 0.117188 Z M 184.5 0.117188 " clip-rule="nonzero"/></clipPath><clipPath id="86708abbaa"><rect x="0" width="369" y="0" height="369"/></clipPath><clipPath id="f0ce9ac199"><path d="M 187.5 0 C 83.945312 0 0 83.945312 0 187.5 C 0 291.054688 83.945312 375 187.5 375 C 291.054688 375 375 291.054688 375 187.5 C 375 83.945312 291.054688 0 187.5 0 Z M 187.5 0 " clip-rule="nonzero"/></clipPath><clipPath id="dff4ffe15d"><path d="M 7.613281 7.613281 L 367.378906 7.613281 L 367.378906 367.378906 L 7.613281 367.378906 Z M 7.613281 7.613281 " clip-rule="nonzero"/></clipPath><clipPath id="d84a2eff34"><path d="M 187.496094 7.613281 C 88.148438 7.613281 7.613281 88.148438 7.613281 187.496094 C 7.613281 286.84375 88.148438 367.378906 187.496094 367.378906 C 286.84375 367.378906 367.378906 286.84375 367.378906 187.496094 C 367.378906 88.148438 286.84375 7.613281 187.496094 7.613281 Z M 187.496094 7.613281 " clip-rule="nonzero"/></clipPath><mask id="c7748af638"><g filter="url(#abaceefe6e)"><rect x="-37.5" width="450" fill="#000000" y="-37.499999" height="449.999989" fill-opacity="0.6"/></g></mask><clipPath id="57d01134ad"><path d="M 3 0.515625 L 195.988281 0.515625 L 195.988281 345.515625 L 3 345.515625 Z M 3 0.515625 " clip-rule="nonzero"/></clipPath><clipPath id="e880d4301d"><rect x="0" width="197" y="0" height="347"/></clipPath><clipPath id="d3de935f42"><rect x="0" width="232" y="0" height="97"/></clipPath><clipPath id="2ede05e589"><rect x="0" width="140" y="0" height="78"/></clipPath></defs><g clip-path="url(#afa3990881)"><g clip-path="url(#999b6f2878)"><g transform="matrix(1, 0, 0, 1, 3, 3)"><g clip-path="url(#86708abbaa)"><g clip-path="url(#371d312deb)"><g clip-path="url(#2ccc1ac129)"><path fill="#7e46a8" d="M 0.117188 0.117188 L 368.882812 0.117188 L 368.882812 368.882812 L 0.117188 368.882812 Z M 0.117188 0.117188 " fill-opacity="1" fill-rule="nonzero"/></g></g></g></g></g></g><g clip-path="url(#f0ce9ac199)"><path stroke-linecap="butt" transform="matrix(0.75, 0, 0, 0.75, 0.0000045, -0.000000000000021316)" fill="none" stroke-linejoin="miter" d="M 249.999994 0.000000000000028422 C 111.927078 0.000000000000028422 -0.000006 111.927084 -0.000006 250 C -0.000006 388.072917 111.927078 500.000001 249.999994 500.000001 C 388.072911 500.000001 499.999995 388.072917 499.999995 250 C 499.999995 111.927084 388.072911 0.000000000000028422 249.999994 0.000000000000028422 Z M 249.999994 0.000000000000028422 " stroke="#c29e59" stroke-width="4" stroke-opacity="1" stroke-miterlimit="4"/></g><g clip-path="url(#dff4ffe15d)"><g clip-path="url(#d84a2eff34)"><path stroke-linecap="butt" transform="matrix(0.75, 0, 0, 0.75, 7.613763, 7.613759)" fill="none" stroke-linejoin="miter" d="M 239.843123 -0.000636707 C 107.379573 -0.000636707 -0.000642707 107.379579 -0.000642707 239.843129 C -0.000642707 372.306679 107.379573 479.686895 239.843123 479.686895 C 372.306673 479.686895 479.686889 372.306679 479.686889 239.843129 C 479.686889 107.379579 372.306673 -0.000636707 239.843123 -0.000636707 Z M 239.843123 -0.000636707 " stroke="#c29e59" stroke-width="4" stroke-opacity="1" stroke-miterlimit="4"/></g></g><g mask="url(#c7748af638)"><g transform="matrix(1, 0, 0, 1, 89, 13)"><g clip-path="url(#e880d4301d)"><g clip-path="url(#57d01134ad)"><path fill="#010101" d="M 91.664062 343.554688 C 84.839844 340.632812 79.964844 334.785156 72.164062 323.089844 C 59.488281 304.574219 58.515625 301.652344 59.488281 295.804688 C 61.4375 285.085938 60.464844 279.238281 54.613281 266.570312 C 51.6875 259.746094 47.789062 251.949219 46.8125 250 C 44.863281 242.207031 38.039062 231.484375 31.214844 224.664062 C 27.3125 221.742188 24.390625 218.816406 23.414062 218.816406 L 22.4375 218.816406 L 22.4375 219.792969 C 22.4375 219.792969 24.390625 223.691406 27.3125 227.585938 C 30.238281 231.484375 33.164062 235.382812 33.164062 236.359375 L 33.164062 237.332031 L 31.214844 237.332031 C 29.265625 237.332031 12.6875 228.5625 9.765625 225.636719 C 4.890625 219.792969 3.914062 217.84375 3.914062 206.148438 L 3.914062 196.402344 L 6.839844 195.429688 C 7.8125 195.429688 11.714844 196.402344 14.640625 197.378906 C 41.9375 210.046875 44.863281 211.019531 50.714844 208.097656 C 54.613281 205.171875 65.339844 193.480469 65.339844 190.554688 C 65.339844 190.554688 64.363281 188.605469 63.390625 186.65625 C 61.4375 181.785156 61.4375 179.835938 62.414062 173.988281 C 63.390625 170.089844 63.390625 168.140625 60.464844 158.394531 C 58.515625 152.550781 56.5625 145.726562 55.589844 142.804688 C 55.589844 140.855469 53.640625 135.980469 53.640625 134.03125 C 52.664062 132.082031 51.6875 129.160156 51.6875 128.1875 C 51.6875 127.210938 49.738281 124.289062 47.789062 121.363281 C 43.890625 114.542969 43.890625 111.617188 48.765625 104.796875 C 51.6875 100.898438 55.589844 93.101562 58.515625 85.304688 C 59.488281 82.382812 61.4375 78.484375 62.414062 76.535156 C 63.390625 74.585938 65.339844 71.664062 66.3125 68.738281 C 68.265625 61.917969 70.214844 58.019531 75.089844 57.046875 C 77.039062 56.070312 80.9375 53.148438 85.8125 49.25 C 89.714844 46.324219 95.5625 40.476562 98.488281 38.527344 C 102.390625 35.605469 105.3125 32.683594 105.3125 30.734375 C 106.289062 28.785156 109.214844 26.835938 113.113281 26.835938 C 115.0625 26.835938 116.039062 24.886719 117.015625 23.910156 C 117.988281 20.988281 117.988281 20.988281 117.015625 18.0625 C 114.089844 13.191406 114.089844 11.242188 120.914062 5.394531 L 126.765625 0.523438 L 127.738281 0.523438 L 127.738281 1.496094 L 124.8125 5.394531 C 117.988281 13.191406 117.015625 17.089844 121.890625 20.011719 C 125.789062 22.9375 127.738281 22.9375 132.613281 16.113281 L 137.488281 10.269531 L 138.464844 10.269531 L 138.464844 11.242188 L 136.515625 16.113281 C 132.613281 22.9375 129.6875 24.886719 124.8125 24.886719 C 119.9375 23.910156 117.015625 26.835938 117.015625 32.683594 C 117.015625 35.605469 117.015625 36.578125 114.089844 38.527344 C 111.164062 40.476562 88.738281 62.890625 85.8125 66.789062 C 84.839844 67.765625 82.890625 70.6875 80.9375 72.636719 C 78.015625 75.5625 75.089844 81.410156 70.214844 94.078125 C 66.3125 103.824219 63.390625 111.617188 63.390625 112.59375 C 62.414062 114.542969 64.363281 119.414062 65.339844 124.289062 C 69.238281 131.109375 75.089844 148.652344 78.015625 156.445312 C 78.988281 159.371094 79.964844 162.292969 81.914062 163.269531 C 82.890625 164.242188 85.8125 166.191406 88.738281 169.117188 C 93.613281 173.988281 94.589844 178.859375 91.664062 184.707031 C 90.6875 186.65625 89.714844 189.582031 90.6875 189.582031 C 90.6875 190.554688 94.589844 190.554688 99.464844 190.554688 L 108.238281 190.554688 L 109.214844 188.605469 C 109.214844 188.605469 109.214844 186.65625 108.238281 184.707031 C 106.289062 182.757812 107.265625 173.988281 110.1875 170.089844 C 110.1875 169.117188 113.113281 167.167969 115.0625 166.191406 C 117.015625 165.21875 118.964844 163.269531 119.9375 161.320312 C 120.914062 159.371094 122.863281 155.472656 123.839844 152.550781 C 133.589844 131.109375 143.339844 103.824219 145.289062 95.050781 C 146.265625 93.101562 145.289062 90.179688 145.289062 88.230469 C 144.3125 85.304688 143.339844 81.410156 143.339844 78.484375 C 143.339844 73.613281 144.3125 71.664062 147.238281 66.789062 C 149.1875 63.867188 151.140625 59.96875 152.113281 58.992188 L 155.039062 57.046875 L 156.015625 57.046875 C 156.988281 58.019531 156.988281 60.941406 156.988281 64.839844 C 156.988281 72.636719 156.988281 72.636719 160.890625 74.585938 C 165.765625 77.511719 178.4375 74.585938 180.390625 69.714844 C 180.390625 68.738281 181.363281 65.816406 181.363281 62.890625 C 183.3125 51.199219 190.140625 53.148438 193.0625 65.816406 C 195.015625 74.585938 191.113281 82.382812 180.390625 89.203125 C 173.5625 93.101562 170.640625 97.976562 162.839844 116.492188 C 158.9375 125.261719 151.140625 141.828125 146.265625 152.550781 C 137.488281 172.039062 137.488281 172.039062 138.464844 175.9375 C 139.4375 179.835938 139.4375 179.835938 137.488281 184.707031 C 133.589844 192.503906 133.589844 194.453125 140.414062 201.273438 C 148.214844 208.097656 150.164062 209.070312 155.039062 209.070312 C 158.9375 209.070312 162.839844 208.097656 169.664062 204.199219 C 182.339844 198.351562 192.089844 194.453125 194.039062 195.429688 L 195.988281 196.402344 L 195.988281 204.199219 C 195.988281 209.070312 195.015625 212.96875 195.015625 214.917969 C 194.039062 215.894531 193.0625 217.84375 193.0625 218.816406 C 193.0625 221.742188 184.289062 229.535156 175.515625 233.433594 L 166.738281 237.332031 L 165.765625 237.332031 C 164.789062 236.359375 166.738281 232.460938 171.613281 226.613281 C 173.5625 223.691406 175.515625 220.765625 175.515625 219.792969 L 174.539062 219.792969 C 173.5625 219.792969 170.640625 222.714844 166.738281 225.636719 C 160.890625 230.511719 158.9375 233.433594 156.015625 239.28125 C 153.089844 244.15625 151.140625 250 150.164062 251.949219 C 149.1875 253.898438 146.265625 261.695312 143.339844 268.519531 C 137.488281 281.1875 137.488281 281.1875 140.414062 297.753906 C 140.414062 301.652344 140.414062 302.625 134.5625 311.398438 C 131.640625 315.296875 127.738281 322.117188 124.8125 326.015625 C 120.914062 332.835938 117.015625 336.734375 109.214844 342.582031 C 106.289062 345.503906 104.339844 345.503906 99.464844 345.503906 C 96.539062 345.503906 92.640625 344.53125 91.664062 343.554688 Z M 94.589844 333.8125 C 94.589844 326.988281 92.640625 322.117188 87.765625 318.21875 L 83.863281 315.296875 L 81.914062 316.269531 C 79.964844 318.21875 80.9375 327.964844 83.863281 331.863281 C 85.8125 335.761719 91.664062 339.660156 93.613281 339.660156 L 95.5625 338.683594 Z M 113.113281 334.785156 C 117.015625 329.914062 117.988281 326.988281 117.988281 321.140625 L 117.988281 316.269531 L 116.039062 315.296875 C 116.039062 315.296875 114.089844 317.246094 111.164062 319.191406 C 107.265625 323.089844 103.363281 331.863281 104.339844 336.734375 L 105.3125 338.683594 L 107.265625 338.683594 C 108.238281 338.683594 111.164062 336.734375 113.113281 334.785156 Z M 107.265625 307.5 C 111.164062 302.625 112.140625 301.652344 109.214844 297.753906 C 107.265625 291.90625 108.238281 283.136719 114.089844 267.542969 C 118.964844 253.898438 119.9375 251.949219 123.839844 248.050781 C 126.765625 246.105469 129.6875 243.179688 131.640625 242.207031 C 137.488281 238.308594 138.464844 232.460938 138.464844 218.816406 C 137.488281 206.148438 136.515625 202.25 130.664062 198.351562 C 126.765625 194.453125 100.4375 192.503906 85.8125 194.453125 C 70.214844 196.402344 70.214844 196.402344 66.3125 200.300781 C 61.4375 204.199219 60.464844 208.097656 60.464844 222.714844 C 61.4375 235.382812 62.414062 239.28125 67.289062 242.207031 C 74.113281 245.128906 78.988281 250.976562 82.890625 262.671875 C 91.664062 286.058594 91.664062 288.984375 87.765625 298.726562 L 86.789062 303.601562 L 88.738281 305.550781 C 97.515625 312.371094 102.390625 313.347656 107.265625 307.5 Z M 107.265625 307.5 " fill-opacity="1" fill-rule="nonzero"/></g></g></g></g><g transform="matrix(1, 0, 0, 1, 72, 11)"><g clip-path="url(#d3de935f42)"><g fill="#e4e1c6" fill-opacity="1"><g transform="translate(31.951827, 87.269596)"><g><path d="M 13.890625 -9.125 C 11.609375 -7.53125 9.273438 -6.585938 6.890625 -6.296875 C 4.503906 -6.003906 2.257812 -6.34375 0.15625 -7.3125 C -1.945312 -8.289062 -3.75 -9.863281 -5.25 -12.03125 L -12.171875 -21.96875 C -13.671875 -24.132812 -14.515625 -26.378906 -14.703125 -28.703125 C -14.890625 -31.023438 -14.421875 -33.242188 -13.296875 -35.359375 C -12.179688 -37.472656 -10.484375 -39.328125 -8.203125 -40.921875 C -5.953125 -42.484375 -3.65625 -43.421875 -1.3125 -43.734375 C 1.03125 -44.046875 3.210938 -43.773438 5.234375 -42.921875 C 7.253906 -42.066406 8.910156 -40.707031 10.203125 -38.84375 L 10.265625 -38.75 C 10.617188 -38.25 10.550781 -37.828125 10.0625 -37.484375 L 5.296875 -34.171875 C 5.066406 -34.003906 4.859375 -33.910156 4.671875 -33.890625 C 4.484375 -33.867188 4.359375 -33.90625 4.296875 -34 L 4.078125 -34.296875 C 3.128906 -35.671875 1.851562 -36.492188 0.25 -36.765625 C -1.34375 -37.046875 -2.921875 -36.644531 -4.484375 -35.5625 C -6.085938 -34.445312 -7.019531 -33.054688 -7.28125 -31.390625 C -7.550781 -29.734375 -7.132812 -28.109375 -6.03125 -26.515625 L 1.140625 -16.203125 C 2.242188 -14.609375 3.65625 -13.671875 5.375 -13.390625 C 7.101562 -13.117188 8.769531 -13.535156 10.375 -14.640625 C 11.914062 -15.710938 12.859375 -16.972656 13.203125 -18.421875 C 13.546875 -19.867188 13.210938 -21.320312 12.203125 -22.78125 L 10.859375 -24.734375 C 10.734375 -24.910156 10.585938 -24.941406 10.421875 -24.828125 L 5.71875 -21.546875 C 5.207031 -21.203125 4.773438 -21.28125 4.421875 -21.78125 L 1.890625 -25.421875 C 1.535156 -25.929688 1.613281 -26.359375 2.125 -26.703125 L 12.515625 -33.9375 C 13.003906 -34.28125 13.425781 -34.195312 13.78125 -33.6875 L 17.703125 -28.046875 C 19.265625 -25.796875 20.148438 -23.515625 20.359375 -21.203125 C 20.566406 -18.890625 20.109375 -16.691406 18.984375 -14.609375 C 17.859375 -12.523438 16.160156 -10.695312 13.890625 -9.125 Z M 13.890625 -9.125 "/></g></g></g><g fill="#e4e1c6" fill-opacity="1"><g transform="translate(57.969741, 70.01999)"><g><path d="M 6.59375 -2.765625 C 5.3125 -2.179688 4.050781 -2.113281 2.8125 -2.5625 C 1.570312 -3.007812 0.6875 -3.820312 0.15625 -5 C -0.363281 -6.144531 -0.359375 -7.34375 0.171875 -8.59375 C 0.710938 -9.851562 1.554688 -10.75 2.703125 -11.28125 C 3.910156 -11.832031 5.164062 -11.894531 6.46875 -11.46875 C 7.78125 -11.050781 8.695312 -10.269531 9.21875 -9.125 C 9.75 -7.945312 9.765625 -6.738281 9.265625 -5.5 C 8.765625 -4.257812 7.875 -3.347656 6.59375 -2.765625 Z M 6.59375 -2.765625 "/></g></g></g><g fill="#e4e1c6" fill-opacity="1"><g transform="translate(69.310188, 63.736565)"><g><path d="M 16.40625 -3.5 C 13.675781 -2.8125 11.128906 -2.765625 8.765625 -3.359375 C 6.410156 -3.960938 4.40625 -5.125 2.75 -6.84375 C 1.09375 -8.570312 -0.0625 -10.75 -0.71875 -13.375 L -3.53125 -24.609375 C -4.175781 -27.191406 -4.171875 -29.617188 -3.515625 -31.890625 C -2.867188 -34.171875 -1.644531 -36.125 0.15625 -37.75 C 1.96875 -39.375 4.238281 -40.53125 6.96875 -41.21875 C 9.726562 -41.90625 12.285156 -41.957031 14.640625 -41.375 C 16.992188 -40.789062 19 -39.648438 20.65625 -37.953125 C 22.3125 -36.253906 23.460938 -34.113281 24.109375 -31.53125 L 26.921875 -20.296875 C 27.578125 -17.671875 27.578125 -15.195312 26.921875 -12.875 C 26.273438 -10.5625 25.050781 -8.59375 23.25 -6.96875 C 21.445312 -5.34375 19.164062 -4.1875 16.40625 -3.5 Z M 14.8125 -9.859375 C 16.726562 -10.335938 18.128906 -11.332031 19.015625 -12.84375 C 19.910156 -14.363281 20.101562 -16.140625 19.59375 -18.171875 L 16.703125 -29.71875 C 16.191406 -31.738281 15.191406 -33.222656 13.703125 -34.171875 C 12.222656 -35.128906 10.503906 -35.363281 8.546875 -34.875 C 6.628906 -34.382812 5.238281 -33.367188 4.375 -31.828125 C 3.507812 -30.296875 3.332031 -28.519531 3.84375 -26.5 L 6.734375 -14.953125 C 7.242188 -12.921875 8.238281 -11.441406 9.71875 -10.515625 C 11.195312 -9.585938 12.894531 -9.367188 14.8125 -9.859375 Z M 14.8125 -9.859375 "/></g></g></g><g fill="#e4e1c6" fill-opacity="1"><g transform="translate(100.438938, 56.684219)"><g><path d="M 7.140625 -0.234375 C 5.734375 -0.140625 4.535156 -0.523438 3.546875 -1.390625 C 2.554688 -2.253906 2.019531 -3.328125 1.9375 -4.609375 C 1.851562 -5.867188 2.285156 -6.988281 3.234375 -7.96875 C 4.179688 -8.957031 5.285156 -9.492188 6.546875 -9.578125 C 7.878906 -9.660156 9.078125 -9.269531 10.140625 -8.40625 C 11.203125 -7.550781 11.773438 -6.492188 11.859375 -5.234375 C 11.941406 -3.953125 11.523438 -2.816406 10.609375 -1.828125 C 9.703125 -0.847656 8.546875 -0.316406 7.140625 -0.234375 Z M 7.140625 -0.234375 "/></g></g></g><g fill="#e4e1c6" fill-opacity="1"><g transform="translate(113.098422, 54.670168)"><g><path d="M 27.40625 3.546875 C 26.90625 3.484375 26.597656 3.1875 26.484375 2.65625 L 25.625 -2.515625 C 25.613281 -2.710938 25.519531 -2.820312 25.34375 -2.84375 L 12.203125 -4.53125 C 12.023438 -4.5625 11.898438 -4.484375 11.828125 -4.296875 L 9.703125 0.5 C 9.453125 0.96875 9.078125 1.171875 8.578125 1.109375 L 2.359375 0.296875 C 2.035156 0.265625 1.8125 0.140625 1.6875 -0.078125 C 1.570312 -0.296875 1.585938 -0.539062 1.734375 -0.8125 L 17.796875 -35.09375 C 18.035156 -35.582031 18.40625 -35.796875 18.90625 -35.734375 L 26.796875 -34.703125 C 27.296875 -34.640625 27.601562 -34.34375 27.71875 -33.8125 L 34.515625 3.4375 C 34.546875 3.5 34.550781 3.601562 34.53125 3.75 C 34.5 3.96875 34.398438 4.128906 34.234375 4.234375 C 34.078125 4.335938 33.875 4.375 33.625 4.34375 Z M 14.5625 -10.546875 C 14.488281 -10.304688 14.5625 -10.171875 14.78125 -10.140625 L 24.265625 -8.921875 C 24.484375 -8.890625 24.59375 -9 24.59375 -9.25 L 21.875 -26.25 C 21.851562 -26.394531 21.796875 -26.472656 21.703125 -26.484375 C 21.617188 -26.492188 21.539062 -26.429688 21.46875 -26.296875 Z M 14.5625 -10.546875 "/></g></g></g><g fill="#e4e1c6" fill-opacity="1"><g transform="translate(147.110654, 59.944759)"><g><path d="M 6.71875 2.453125 C 5.382812 2.003906 4.414062 1.195312 3.8125 0.03125 C 3.207031 -1.132812 3.109375 -2.328125 3.515625 -3.546875 C 3.910156 -4.742188 4.734375 -5.617188 5.984375 -6.171875 C 7.234375 -6.734375 8.457031 -6.816406 9.65625 -6.421875 C 10.914062 -6.003906 11.878906 -5.195312 12.546875 -4 C 13.210938 -2.8125 13.347656 -1.617188 12.953125 -0.421875 C 12.546875 0.796875 11.738281 1.6875 10.53125 2.25 C 9.320312 2.820312 8.050781 2.890625 6.71875 2.453125 Z M 6.71875 2.453125 "/></g></g></g><g fill="#e4e1c6" fill-opacity="1"><g transform="translate(159.769981, 63.216754)"><g><path d="M 43.640625 -19.4375 C 44.179688 -19.144531 44.304688 -18.726562 44.015625 -18.1875 L 41.75 -14 C 41.457031 -13.457031 41.039062 -13.332031 40.5 -13.625 L 32.28125 -18.0625 C 32.09375 -18.164062 31.945312 -18.128906 31.84375 -17.953125 L 17.5625 8.453125 C 17.269531 8.992188 16.851562 9.117188 16.3125 8.828125 L 11.234375 6.078125 C 10.691406 5.785156 10.566406 5.367188 10.859375 4.828125 L 25.140625 -21.578125 C 25.242188 -21.753906 25.195312 -21.894531 25 -22 L 17.015625 -26.328125 C 16.472656 -26.617188 16.347656 -27.035156 16.640625 -27.578125 L 18.90625 -31.765625 C 19.195312 -32.304688 19.613281 -32.429688 20.15625 -32.140625 Z M 43.640625 -19.4375 "/></g></g></g><g fill="#e4e1c6" fill-opacity="1"><g transform="translate(185.957546, 78.089837)"><g><path d="M 5.453125 4.609375 C 4.347656 3.734375 3.710938 2.640625 3.546875 1.328125 C 3.390625 0.0234375 3.71875 -1.128906 4.53125 -2.140625 C 5.3125 -3.117188 6.382812 -3.65625 7.75 -3.75 C 9.113281 -3.84375 10.289062 -3.5 11.28125 -2.71875 C 12.320312 -1.882812 12.953125 -0.789062 13.171875 0.5625 C 13.390625 1.914062 13.109375 3.082031 12.328125 4.0625 C 11.515625 5.070312 10.441406 5.632812 9.109375 5.75 C 7.773438 5.863281 6.554688 5.484375 5.453125 4.609375 Z M 5.453125 4.609375 "/></g></g></g></g></g><g transform="matrix(1, 0, 0, 1, 117, 281)"><g clip-path="url(#2ede05e589)"><g fill="#e4e1c6" fill-opacity="1"><g transform="translate(4.692967, 52.194995)"><g><path d="M 30.015625 -7.109375 C 30.234375 -5.347656 29.984375 -3.445312 29.265625 -1.40625 C 28.578125 0.570312 27.578125 2.171875 26.265625 3.390625 C 24.734375 4.796875 22.863281 5.675781 20.65625 6.03125 C 18.457031 6.382812 16.097656 6.117188 13.578125 5.234375 C 11.160156 4.378906 9.195312 3.140625 7.6875 1.515625 C 6.175781 -0.0976562 5.269531 -2.007812 4.96875 -4.21875 C 4.726562 -6.101562 4.929688 -7.96875 5.578125 -9.8125 C 6.242188 -11.707031 7.253906 -13.328125 8.609375 -14.671875 C 9.671875 -15.648438 10.878906 -16.335938 12.234375 -16.734375 C 12.503906 -16.828125 12.554688 -16.960938 12.390625 -17.140625 C 11.722656 -18.140625 11.238281 -19.265625 10.9375 -20.515625 C 10.601562 -22.160156 10.742188 -23.851562 11.359375 -25.59375 C 12.097656 -27.695312 13.304688 -29.347656 14.984375 -30.546875 C 16.472656 -31.628906 18.234375 -32.253906 20.265625 -32.421875 C 22.296875 -32.585938 24.394531 -32.289062 26.5625 -31.53125 C 29.050781 -30.65625 31.039062 -29.4375 32.53125 -27.875 C 34.03125 -26.320312 34.921875 -24.476562 35.203125 -22.34375 C 35.453125 -20.582031 35.296875 -18.898438 34.734375 -17.296875 C 34.148438 -15.640625 33.203125 -14.296875 31.890625 -13.265625 C 30.867188 -12.503906 29.75 -11.921875 28.53125 -11.515625 C 28.28125 -11.492188 28.234375 -11.363281 28.390625 -11.125 C 29.304688 -9.945312 29.847656 -8.609375 30.015625 -7.109375 Z M 19.59375 -24.578125 C 19.019531 -24.015625 18.550781 -23.222656 18.1875 -22.203125 C 17.8125 -21.148438 17.734375 -20.171875 17.953125 -19.265625 C 18.097656 -18.472656 18.441406 -17.800781 18.984375 -17.25 C 19.535156 -16.695312 20.234375 -16.269531 21.078125 -15.96875 C 22.953125 -15.3125 24.515625 -15.507812 25.765625 -16.5625 C 26.460938 -17.15625 27 -17.976562 27.375 -19.03125 C 27.707031 -19.976562 27.820312 -20.835938 27.71875 -21.609375 C 27.476562 -23.410156 26.367188 -24.660156 24.390625 -25.359375 C 23.472656 -25.679688 22.59375 -25.765625 21.75 -25.609375 C 20.914062 -25.460938 20.195312 -25.117188 19.59375 -24.578125 Z M 20.078125 -1.296875 C 21.054688 -2.078125 21.800781 -3.191406 22.3125 -4.640625 C 22.664062 -5.640625 22.8125 -6.582031 22.75 -7.46875 C 22.664062 -8.414062 22.351562 -9.234375 21.8125 -9.921875 C 21.269531 -10.617188 20.503906 -11.140625 19.515625 -11.484375 C 17.691406 -12.128906 16.070312 -11.757812 14.65625 -10.375 C 14 -9.695312 13.484375 -8.832031 13.109375 -7.78125 C 12.628906 -6.40625 12.5 -5.171875 12.71875 -4.078125 C 13.082031 -2.484375 14.09375 -1.394531 15.75 -0.8125 C 17.394531 -0.238281 18.835938 -0.398438 20.078125 -1.296875 Z M 20.078125 -1.296875 "/></g></g></g><g fill="#e4e1c6" fill-opacity="1"><g transform="translate(37.54604, 63.195947)"><g><path d="M 15.203125 2.3125 C 11.253906 1.863281 8.253906 0.410156 6.203125 -2.046875 C 4.160156 -4.515625 3.351562 -7.640625 3.78125 -11.421875 L 5.375 -25.625 C 5.800781 -29.34375 7.28125 -32.164062 9.8125 -34.09375 C 12.351562 -36.03125 15.597656 -36.773438 19.546875 -36.328125 C 23.484375 -35.890625 26.484375 -34.445312 28.546875 -32 C 30.617188 -29.550781 31.441406 -26.46875 31.015625 -22.75 L 29.421875 -8.546875 C 28.992188 -4.765625 27.5 -1.898438 24.9375 0.046875 C 22.382812 1.992188 19.140625 2.75 15.203125 2.3125 Z M 15.9375 -4.203125 C 17.550781 -4.023438 18.882812 -4.367188 19.9375 -5.234375 C 21 -6.109375 21.625 -7.367188 21.8125 -9.015625 L 23.46875 -23.796875 C 23.65625 -25.441406 23.328125 -26.8125 22.484375 -27.90625 C 21.648438 -29.007812 20.425781 -29.648438 18.8125 -29.828125 C 17.238281 -30.003906 15.921875 -29.648438 14.859375 -28.765625 C 13.796875 -27.890625 13.171875 -26.628906 12.984375 -24.984375 L 11.328125 -10.203125 C 11.140625 -8.554688 11.46875 -7.1875 12.3125 -6.09375 C 13.15625 -5.007812 14.363281 -4.378906 15.9375 -4.203125 Z M 15.9375 -4.203125 "/></g></g></g><g fill="#e4e1c6" fill-opacity="1"><g transform="translate(73.54266, 66.523225)"><g><path d="M 21.84375 -33.640625 C 22.65625 -32.160156 23.171875 -30.441406 23.390625 -28.484375 L 25.21875 -12.296875 C 25.4375 -10.359375 25.117188 -8.585938 24.265625 -6.984375 C 23.421875 -5.390625 22.128906 -4.085938 20.390625 -3.078125 C 18.648438 -2.066406 16.597656 -1.425781 14.234375 -1.15625 C 11.910156 -0.894531 9.804688 -1.066406 7.921875 -1.671875 C 6.046875 -2.273438 4.53125 -3.242188 3.375 -4.578125 C 2.21875 -5.921875 1.535156 -7.546875 1.328125 -9.453125 L 1.1875 -10.6875 C 1.113281 -11.289062 1.382812 -11.628906 2 -11.703125 L 7.734375 -12.34375 C 8.347656 -12.414062 8.675781 -12.28125 8.71875 -11.9375 L 8.78125 -11.34375 C 8.914062 -10.15625 9.421875 -9.210938 10.296875 -8.515625 C 11.179688 -7.816406 12.25 -7.535156 13.5 -7.671875 C 14.820312 -7.828125 15.859375 -8.351562 16.609375 -9.25 C 17.359375 -10.15625 17.660156 -11.234375 17.515625 -12.484375 L 16.96875 -17.421875 C 16.945312 -17.566406 16.898438 -17.648438 16.828125 -17.671875 C 16.753906 -17.703125 16.671875 -17.660156 16.578125 -17.546875 C 15.210938 -16.148438 13.347656 -15.316406 10.984375 -15.046875 C 8.835938 -14.804688 6.851562 -15.082031 5.03125 -15.875 C 3.21875 -16.664062 1.726562 -17.941406 0.5625 -19.703125 C -0.488281 -21.210938 -1.15625 -23.222656 -1.4375 -25.734375 C -1.675781 -27.804688 -1.546875 -29.707031 -1.046875 -31.4375 C -0.359375 -33.664062 0.898438 -35.5 2.734375 -36.9375 C 4.578125 -38.382812 6.835938 -39.257812 9.515625 -39.5625 C 12.285156 -39.863281 14.742188 -39.488281 16.890625 -38.4375 C 19.046875 -37.394531 20.695312 -35.796875 21.84375 -33.640625 Z M 15.34375 -24.203125 C 15.769531 -25.179688 15.898438 -26.410156 15.734375 -27.890625 C 15.585938 -29.179688 15.234375 -30.242188 14.671875 -31.078125 C 13.703125 -32.578125 12.25 -33.21875 10.3125 -33 C 8.457031 -32.789062 7.203125 -31.847656 6.546875 -30.171875 C 6.109375 -29.222656 5.96875 -28.066406 6.125 -26.703125 C 6.28125 -25.265625 6.703125 -24.113281 7.390625 -23.25 C 8.441406 -21.914062 9.828125 -21.347656 11.546875 -21.546875 C 13.484375 -21.753906 14.75 -22.640625 15.34375 -24.203125 Z M 15.34375 -24.203125 "/></g></g></g><g fill="#e4e1c6" fill-opacity="1"><g transform="translate(107.285208, 62.215781)"><g><path d="M 3.171875 -1.109375 C 2.585938 -0.898438 2.195312 -1.085938 2 -1.671875 L 0.5 -5.96875 C 0.375 -6.34375 0.40625 -6.75 0.59375 -7.1875 C 1.507812 -9.070312 2.445312 -11.144531 3.40625 -13.40625 C 4.375 -15.664062 5.035156 -17.1875 5.390625 -17.96875 C 6.335938 -20.28125 7.054688 -21.984375 7.546875 -23.078125 C 9.453125 -27.578125 10.113281 -30.664062 9.53125 -32.34375 C 9.113281 -33.53125 8.347656 -34.359375 7.234375 -34.828125 C 6.117188 -35.296875 4.882812 -35.296875 3.53125 -34.828125 C 2.15625 -34.359375 1.175781 -33.59375 0.59375 -32.53125 C 0.0078125 -31.46875 -0.0625 -30.304688 0.375 -29.046875 L 0.734375 -28.03125 C 0.929688 -27.445312 0.742188 -27.054688 0.171875 -26.859375 L -5.34375 -24.9375 C -5.925781 -24.738281 -6.316406 -24.929688 -6.515625 -25.515625 L -7.265625 -27.65625 C -7.796875 -29.53125 -7.773438 -31.351562 -7.203125 -33.125 C -6.640625 -34.90625 -5.613281 -36.472656 -4.125 -37.828125 C -2.632812 -39.179688 -0.796875 -40.238281 1.390625 -41 C 3.804688 -41.84375 6.0625 -42.125 8.15625 -41.84375 C 10.257812 -41.5625 12.0625 -40.820312 13.5625 -39.625 C 15.0625 -38.4375 16.140625 -36.90625 16.796875 -35.03125 C 17.285156 -33.601562 17.429688 -32.015625 17.234375 -30.265625 C 17.046875 -28.515625 16.539062 -26.53125 15.71875 -24.3125 C 14.9375 -22.15625 13.484375 -18.765625 11.359375 -14.140625 C 11.328125 -14.085938 10.820312 -12.953125 9.84375 -10.734375 C 9.757812 -10.640625 9.75 -10.554688 9.8125 -10.484375 C 9.875 -10.410156 9.972656 -10.398438 10.109375 -10.453125 L 23.484375 -15.09375 C 24.054688 -15.289062 24.445312 -15.097656 24.65625 -14.515625 L 26.203125 -10.078125 C 26.398438 -9.492188 26.210938 -9.101562 25.640625 -8.90625 Z M 3.171875 -1.109375 "/></g></g></g></g></g></svg>