<?xml version="1.0" encoding="UTF-8" standalone="no"?>
<!DOCTYPE svg PUBLIC "-//W3C//DTD SVG 1.1//EN" "http://www.w3.org/Graphics/SVG/1.1/DTD/svg11.dtd">
<svg width="100%" height="100%" viewBox="0 0 200 354" version="1.1" xmlns="http://www.w3.org/2000/svg" xmlns:xlink="http://www.w3.org/1999/xlink" xml:space="preserve" xmlns:serif="http://www.serif.com/" style="fill-rule:evenodd;clip-rule:evenodd;stroke-linejoin:round;stroke-miterlimit:2;">
    <path d="M93,352C86,349 81,343 73,331C60,312 59,309 60,303C62,292 61,286 55,273C52,266 48,258 47,256C45,248 38,237 31,230C27,227 24,224 23,224L22,224L22,225C22,225 24,229 27,233C30,237 33,241 33,242L33,243L31,243C29,243 12,234 9,231C4,225 3,223 3,211L3,201L6,200C7,200 11,201 14,202C42,215 45,216 51,213C55,210 66,198 66,195C66,195 65,193 64,191C62,186 62,184 63,178C64,174 64,172 61,162C59,156 57,149 56,146C56,144 54,139 54,137C53,135 52,132 52,131C52,130 50,127 48,124C44,117 44,114 49,107C52,103 56,95 59,87C60,84 62,80 63,78C64,76 66,73 67,70C69,63 71,59 76,58C78,57 82,54 87,50C91,47 97,41 100,39C104,36 107,33 107,31C108,29 111,27 115,27C117,27 118,25 119,24C120,21 120,21 119,18C116,13 116,11 123,5L129,0L130,0L130,1L127,5C120,13 119,17 124,20C128,23 130,23 135,16L140,10L141,10L141,11L139,16C135,23 132,25 127,25C122,24 119,27 119,33C119,36 119,37 116,39C113,41 90,64 87,68C86,69 84,72 82,74C79,77 76,83 71,96C67,106 64,114 64,115C63,117 65,122 66,127C70,134 76,152 79,160C80,163 81,166 83,167C84,168 87,170 90,173C95,178 96,183 93,189C92,191 91,194 92,194C92,195 96,195 101,195L110,195L111,193C111,193 111,191 110,189C108,187 109,178 112,174C112,173 115,171 117,170C119,169 121,167 122,165C123,163 125,159 126,156C136,134 146,106 148,97C149,95 148,92 148,90C147,87 146,83 146,80C146,75 147,73 150,68C152,65 154,61 155,60L158,58L159,58C160,59 160,62 160,66C160,74 160,74 164,76C169,79 182,76 184,71C184,70 185,67 185,64C187,52 194,54 197,67C199,76 195,84 184,91C177,95 174,100 166,119C162,128 154,145 149,156C140,176 140,176 141,180C142,184 142,184 140,189C136,197 136,199 143,206C151,213 153,214 158,214C162,214 166,213 173,209C186,203 196,199 198,200L200,201L200,209C200,214 199,218 199,220C198,221 197,223 197,224C197,227 188,235 179,239L170,243L169,243C168,242 170,238 175,232C177,229 179,226 179,225L178,225C177,225 174,228 170,231C164,236 162,239 159,245C156,250 154,256 153,258C152,260 149,268 146,275C140,288 140,288 143,305C143,309 143,310 137,319C134,323 130,330 127,334C123,341 119,345 111,351C108,354 106,354 101,354C98,354 94,353 93,352ZM96,342C96,335 94,330 89,326L85,323L83,324C81,326 82,336 85,340C87,344 93,348 95,348L97,347L96,342ZM115,343C119,338 120,335 120,329L120,324L118,323C118,323 116,325 113,327C109,331 105,340 106,345L107,347L109,347C110,347 113,345 115,343ZM109,315C113,310 114,309 111,305C109,299 110,290 116,274C121,260 122,258 126,254C129,252 132,249 134,248C140,244 141,238 141,224C140,211 139,207 133,203C129,199 102,197 87,199C71,201 71,201 67,205C62,209 61,213 61,228C62,241 63,245 68,248C75,251 80,257 84,269C93,293 93,296 89,306L88,311L90,313C99,320 104,321 109,315Z" style="fill:white;fill-rule:nonzero;"/>
</svg>
