<?xml version="1.0" standalone="no"?>

<!DOCTYPE svg PUBLIC "-//W3C//DTD SVG 20010904//EN"

 "http://www.w3.org/TR/2001/REC-SVG-20010904/DTD/svg10.dtd">

<svg version="1.0" xmlns="http://www.w3.org/2000/svg"

 width="200.000000pt" height="354.000000pt" viewBox="0 0 200.000000 354.000000"

 preserveAspectRatio="xMidYMid meet">

<path fill="#010101" stroke="none" d="
M93 352

C86 349 81 343 73 331

C60 312 59 309 60 303

C62 292 61 286 55 273

C52 266 48 258 47 256

C45 248 38 237 31 230

C27 227 24 224 23 224

L22 224

L22 225

C22 225 24 229 27 233

C30 237 33 241 33 242

L33 243

L31 243

C29 243 12 234 9 231

C4 225 3 223 3 211

L3 201

L6 200

C7 200 11 201 14 202

C42 215 45 216 51 213

C55 210 66 198 66 195

C66 195 65 193 64 191

C62 186 62 184 63 178

C64 174 64 172 61 162

C59 156 57 149 56 146

C56 144 54 139 54 137

C53 135 52 132 52 131

C52 130 50 127 48 124

C44 117 44 114 49 107

C52 103 56 95 59 87

C60 84 62 80 63 78

C64 76 66 73 67 70

C69 63 71 59 76 58

C78 57 82 54 87 50

C91 47 97 41 100 39

C104 36 107 33 107 31

C108 29 111 27 115 27

C117 27 118 25 119 24

C120 21 120 21 119 18

C116 13 116 11 123 5

L129 0

L130 0

L130 1

L127 5

C120 13 119 17 124 20

C128 23 130 23 135 16

L140 10

L141 10

L141 11

L139 16

C135 23 132 25 127 25

C122 24 119 27 119 33

C119 36 119 37 116 39

C113 41 90 64 87 68

C86 69 84 72 82 74

C79 77 76 83 71 96

C67 106 64 114 64 115

C63 117 65 122 66 127

C70 134 76 152 79 160

C80 163 81 166 83 167

C84 168 87 170 90 173

C95 178 96 183 93 189

C92 191 91 194 92 194

C92 195 96 195 101 195

L110 195

L111 193

C111 193 111 191 110 189

C108 187 109 178 112 174

C112 173 115 171 117 170

C119 169 121 167 122 165

C123 163 125 159 126 156

C136 134 146 106 148 97

C149 95 148 92 148 90

C147 87 146 83 146 80

C146 75 147 73 150 68

C152 65 154 61 155 60

L158 58

L159 58

C160 59 160 62 160 66

C160 74 160 74 164 76

C169 79 182 76 184 71

C184 70 185 67 185 64

C187 52 194 54 197 67

C199 76 195 84 184 91

C177 95 174 100 166 119

C162 128 154 145 149 156

C140 176 140 176 141 180

C142 184 142 184 140 189

C136 197 136 199 143 206

C151 213 153 214 158 214

C162 214 166 213 173 209

C186 203 196 199 198 200

L200 201

L200 209

C200 214 199 218 199 220

C198 221 197 223 197 224

C197 227 188 235 179 239

L170 243

L169 243

C168 242 170 238 175 232

C177 229 179 226 179 225

L179 225

L178 225

C177 225 174 228 170 231

C164 236 162 239 159 245

C156 250 154 256 153 258

C152 260 149 268 146 275

C140 288 140 288 143 305

C143 309 143 310 137 319

C134 323 130 330 127 334

C123 341 119 345 111 351

C108 354 106 354 101 354

C98 354 94 353 93 352

Z

M96 342

C96 335 94 330 89 326

L85 323

L83 324

C81 326 82 336 85 340

C87 344 93 348 95 348

L97 347

L96 342

Z

M115 343

C119 338 120 335 120 329

L120 324

L118 323

C118 323 116 325 113 327

C109 331 105 340 106 345

L107 347

L109 347

C110 347 113 345 115 343

Z

M109 315

C113 310 114 309 111 305

C109 299 110 290 116 274

C121 260 122 258 126 254

C129 252 132 249 134 248

C140 244 141 238 141 224

C140 211 139 207 133 203

C129 199 102 197 87 199

C71 201 71 201 67 205

C62 209 61 213 61 228

C62 241 63 245 68 248

C75 251 80 257 84 269

C93 293 93 296 89 306

L88 311

L90 313

C99 320 104 321 109 315

Z

"/>

<path fill="#ffffff" stroke="none" d="
"/>

</svg>

